<?xml version="1.0" encoding="UTF-8" standalone="no"?>
<!-- Created with Inkscape (http://www.inkscape.org/) -->
<svg
   xmlns:svg="http://www.w3.org/2000/svg"
   xmlns="http://www.w3.org/2000/svg"
   version="1.0"
   width="748"
   height="120"
   viewBox="-0.487 -0.771 748 120"
   id="svg2"
   xml:space="preserve">
	<defs
   id="defs4">
	</defs>
	<g
   id="g6">
		<path
   d="M 679.608,56.733 C 682.779,54.996 684.364,51.653 684.366,46.852 C 684.366,42.234 682.944,39.082 680.102,37.395 C 678.584,36.489 676.573,36.035 674.061,36.033 L 670.38,36.1 L 670.386,38.796 L 670.386,57.8 C 674.673,57.814 677.759,57.719 679.608,56.733 z M 642.325,84.045 C 645.507,84.092 647.165,83.991 649.375,83.529 C 651.405,83.107 654.831,81.15 654.817,76.391 L 654.751,41.795 C 654.751,38.994 651.909,35.683 648.718,35.218 C 647.036,34.974 645.304,35.135 642.363,35.135 L 642.363,33.157 L 679.982,33.157 C 684.573,33.157 688.4,33.74 691.462,34.907 C 697.273,37.113 699.941,40.696 699.941,46.613 C 699.941,50.581 698.811,52.637 696.219,54.764 C 693.649,56.893 688.959,58.165 684.522,58.839 C 702.501,57.705 700.004,73.208 701.469,76.818 C 702.485,80.999 706.74,84.476 712.367,83.955 C 716.842,83.834 713.23,85.722 713.23,85.722 L 696.589,85.722 C 676.53,85.722 689.767,60.297 674.419,60.257 C 671.46,60.257 670.296,60.257 670.296,60.257 L 670.245,77.246 C 670.161,80.901 673.714,83.524 676.338,83.863 C 678.19,84.1 679.359,84.113 682.398,84.113 L 682.394,85.882 L 642.319,85.877 L 642.325,84.045 z "
   id="path8" />
		<path
   d="M 488.454,66.733 L 478.36,48.59 L 469.205,66.747 L 488.454,66.733 z M 447.972,85.729 L 447.958,83.886 C 453.259,83.673 457.925,84.191 464.21,71.174 L 484.308,30.356 L 511.556,77.246 C 515.588,82.93 519.38,84.06 526.347,84.289 L 526.347,85.725 L 481.765,85.725 L 481.744,83.887 C 484.241,83.887 487.849,83.867 488.572,83.747 C 491.355,83.283 495.601,80.802 493.636,76.483 L 489.883,69.365 L 468.085,69.365 L 465.373,74.597 C 462.571,80.576 466.786,83.424 471.14,83.886 C 472.197,84.085 472.837,83.745 474.816,83.886 L 474.863,85.653 L 447.972,85.729 z "
   id="path10" />
		<path
   d="M 540.22,82.148 C 540.716,82.564 541.728,82.77 543.256,82.77 C 548.019,82.77 551.939,81.539 555.016,79.073 C 559.739,75.287 561.351,69.185 561.353,60.027 C 561.353,51.856 560.155,45.334 556.265,41.209 C 552.931,37.682 548.515,35.919 543.017,35.916 C 541.648,35.916 540.716,36.111 540.22,36.501 C 539.743,36.891 539.505,37.746 539.505,39.07 L 539.505,79.579 C 539.505,80.878 539.743,81.733 540.22,82.148 z M 510.632,84.288 C 513.537,83.977 515.618,82.744 516.778,82.929 C 523.363,83.986 523.71,80.895 523.71,77.09 L 523.71,42.296 C 523.71,38.192 520.393,35.582 517.434,35.177 C 516.248,35.014 514.719,34.767 511.625,34.767 L 511.625,32.998 L 545.838,32.998 C 553.076,32.998 559.197,34.192 564.205,36.578 C 573.234,40.858 577.748,48.514 577.748,59.538 C 577.748,63.508 576.931,67.283 575.297,70.863 C 573.688,74.443 571.248,77.467 567.981,79.928 C 565.905,81.486 563.752,82.666 561.521,83.47 C 557.448,84.976 552.581,85.723 546.641,85.723 L 510.774,85.723 L 510.632,84.288 z "
   id="path12" />
		<path
   d="M 174.201,84.018 C 177.665,83.831 180.603,83.788 182.047,83.479 C 186.108,82.609 187.892,80.084 188.589,77.301 L 194.768,41.641 C 195.203,38.661 193.351,35.697 190.523,35.133 C 188.023,34.632 187.103,34.937 182.891,34.849 C 183.173,34.92 182.961,32.94 182.961,32.94 L 211.04,33.003 L 221.548,62.341 L 232.429,33.003 L 259.959,33.003 C 259.959,33.003 260.135,35.095 260.009,35.095 C 257.051,35.303 254.409,34.864 252.815,35.239 C 249.41,36.037 247.767,38.603 248.146,41.641 L 254.203,76.928 C 254.904,80.666 257.457,82.697 260.3,83.277 C 261.805,83.585 264.45,84.069 267.571,83.905 L 267.59,85.721 L 226.485,85.717 L 226.437,83.977 C 229.687,83.905 232.646,83.568 234.105,83.248 C 238.012,82.387 238.741,79.405 238.201,75.995 L 231.972,41.823 L 216.072,85.568 L 214.604,89.523 L 197.446,41.83 L 191.827,74.017 C 190.725,79.935 192.346,82.278 195.194,83.336 C 196.311,83.752 200.427,83.977 203.113,83.977 L 203.133,85.732 L 174.202,85.732 L 174.202,84.018 L 174.201,84.018 z "
   id="path14" />
		<path
   d="M 322.205,83.904 C 325.526,83.976 327.218,83.777 328.792,83.341 C 333.607,82.006 334.761,78.293 334.667,74.025 L 334.667,41.828 C 334.588,40.349 335.478,35.739 329.909,34.926 C 328.974,34.79 323.784,34.885 322.149,34.832 L 322.149,33.009 L 350.204,33.009 L 376.282,62.122 L 376.282,42.322 C 376.149,37.389 372.176,35.49 370.348,35.185 C 368.958,34.954 366.376,34.895 363.428,34.895 L 363.428,33.008 L 392.29,33.008 L 392.29,34.487 C 389.253,34.798 386.296,34.919 384.677,35.243 C 382.647,35.648 378.995,37.853 378.995,42.378 L 378.995,86.671 L 378.957,89.771 L 337.38,42.575 L 337.386,74.226 C 337.083,79.395 339.643,82.681 343.298,83.455 C 344.752,83.765 347.297,84.116 349.964,83.994 L 349.971,85.72 L 322.265,85.72 L 322.205,83.904 z "
   id="path16" />
		<path
   d="M 705.292,84.792 C 708.534,84.56 710.79,84.147 711.991,84.047 C 714.718,83.816 718.366,81.136 718.366,77.593 L 718.366,40.826 C 718.313,38.113 715.235,34.602 711.778,34.784 C 710.434,34.855 709.022,34.784 705.911,34.784 L 705.932,32.924 L 746.69,32.945 L 746.669,34.805 C 743.3,34.784 741.815,34.715 740.331,34.856 C 736.903,35.183 734.126,38.046 734.161,40.827 L 734.161,77.594 C 734.161,81.022 737.153,83.399 740.828,83.906 C 742.878,84.19 743.188,83.861 746.509,84.003 L 746.497,85.723 L 705.147,85.723 L 705.292,84.792 z "
   id="path18" />
		<path
   d="M 314.15,38.953 C 308.713,34.231 302.014,31.87 294.048,31.87 C 286.11,31.872 279.424,34.219 273.99,38.913 C 268.066,44.052 265.104,50.874 265.104,59.383 C 265.104,67.478 267.878,74.107 273.429,79.269 C 278.892,84.329 285.766,86.858 294.048,86.858 C 301.783,86.855 308.384,84.575 313.848,80.008 C 319.944,74.898 322.993,68.022 322.993,59.383 C 322.992,50.874 320.045,44.063 314.15,38.953 z M 294.048,83.986 C 286.966,83.986 281.226,73.04 281.226,59.534 C 281.226,46.028 286.966,35.08 294.048,35.08 C 301.13,35.08 306.87,46.028 306.87,59.534 C 306.87,73.04 301.13,83.986 294.048,83.986 z "
   style="fill-rule:evenodd"
   id="path20" />
		<path
   d="M 633.899,38.953 C 628.461,34.231 621.762,31.87 613.796,31.87 C 605.859,31.872 599.172,34.219 593.738,38.913 C 587.814,44.052 584.851,50.874 584.851,59.383 C 584.851,67.478 587.626,74.107 593.176,79.269 C 598.64,84.329 605.513,86.858 613.795,86.858 C 621.53,86.855 628.132,84.575 633.595,80.008 C 639.693,74.898 642.741,68.022 642.741,59.383 C 642.741,50.874 639.794,44.063 633.899,38.953 z M 613.797,83.986 C 606.716,83.986 600.976,73.04 600.976,59.534 C 600.976,46.028 606.716,35.08 613.797,35.08 C 620.878,35.08 626.618,46.028 626.618,59.534 C 626.618,73.04 620.878,83.986 613.797,83.986 z "
   style="fill-rule:evenodd"
   id="path22" />
		<path
   d="M 416.69,82.573 C 417.185,82.989 418.198,83.195 419.725,83.195 C 424.489,83.195 428.409,81.964 431.485,79.498 C 436.208,75.713 437.821,69.612 437.822,60.454 C 437.822,52.281 436.626,45.76 432.735,41.635 C 429.401,38.108 424.984,36.344 419.487,36.343 C 418.118,36.343 417.185,36.537 416.69,36.927 C 416.212,37.316 415.973,38.172 415.973,39.495 L 415.973,80.005 C 415.974,81.303 416.213,82.158 416.69,82.573 z M 388.022,83.957 C 396.15,83.462 392.652,84.18 393.486,83.957 C 399.566,82.333 400.247,78.959 400.501,74.736 L 400.483,42.331 C 400.483,38.227 397.165,35.617 394.205,35.21 C 393.021,35.048 390.364,34.721 387.407,34.513 L 387.407,33.034 L 422.612,33.034 C 429.849,33.034 435.971,34.228 440.98,36.614 C 450.007,40.896 454.522,48.549 454.522,59.574 C 454.522,63.543 453.705,67.317 452.07,70.897 C 450.462,74.479 448.023,77.502 444.755,79.966 C 442.68,81.522 440.525,82.703 438.295,83.506 C 434.221,85.012 429.215,85.764 423.274,85.764 L 388.041,85.744 C 387.969,85.603 388.111,83.886 388.022,83.957 z "
   id="path24" />
		<path
   d="M 72.347,29.257 L 61.782,47.555 L 86.073,89.75 L 96.632,71.461 L 72.347,29.257 L 72.347,29.257 z M 0.006,114.439 L 1.079,114.439 C 13.866,114.029 24.995,107.061 31.215,96.786 L 31.403,96.513 L 62.408,42.812 L 72.777,24.833 L 84.773,4.104 L 87.138,0 L 143.105,96.885 C 149.514,107.366 161.045,114.373 174.218,114.422 L 174.286,114.44 L 174.286,116.268 L 93.682,116.268 L 93.682,115.592 L 93.672,114.45 L 94.285,114.439 C 102.872,114.134 109.74,107.085 109.74,98.427 C 109.74,95.687 109.052,93.106 107.839,90.852 L 97.686,73.296 L 73.794,114.678 L 71.25,119.026 L 45.89,75.081 L 37.647,89.368 C 35.873,91.945 34.834,95.068 34.834,98.436 C 34.834,106.535 40.855,113.236 48.667,114.296 C 49.01,114.38 49.358,114.427 49.714,114.439 L 50.666,114.439 L 50.666,116.267 L 0.006,116.267 L 0.006,115.597 L 0,114.456 L 0.006,114.439 L 0.006,114.439 z "
   style="fill:#d12a08"
   id="path26" />
	</g>
</svg>